<?xml version="1.0" encoding="UTF-8" standalone="no"?>
<!-- Created with Inkscape (http://www.inkscape.org/) -->

<svg
   xmlns:dc="http://purl.org/dc/elements/1.1/"
   xmlns:cc="http://creativecommons.org/ns#"
   xmlns:rdf="http://www.w3.org/1999/02/22-rdf-syntax-ns#"
   xmlns:svg="http://www.w3.org/2000/svg"
   xmlns="http://www.w3.org/2000/svg"
   xmlns:sodipodi="http://sodipodi.sourceforge.net/DTD/sodipodi-0.dtd"
   xmlns:inkscape="http://www.inkscape.org/namespaces/inkscape"
   width="62.037395mm"
   height="14.324999mm"
   viewBox="0 0 219.81755 50.75787"
   id="svg4323"
   version="1.1"
   inkscape:version="0.91 r13725"
   sodipodi:docname="BII 1992.svg">
  <defs
     id="defs4325" />
  <sodipodi:namedview
     id="base"
     pagecolor="#ffffff"
     bordercolor="#666666"
     borderopacity="1.0"
     inkscape:pageopacity="0.0"
     inkscape:pageshadow="2"
     inkscape:zoom="1.979899"
     inkscape:cx="103.72856"
     inkscape:cy="38.238639"
     inkscape:document-units="px"
     inkscape:current-layer="layer1"
     showgrid="false"
     fit-margin-top="0"
     fit-margin-left="0"
     fit-margin-right="0"
     fit-margin-bottom="0"
     inkscape:window-width="1366"
     inkscape:window-height="705"
     inkscape:window-x="-8"
     inkscape:window-y="-8"
     inkscape:window-maximized="1" />
  <metadata
     id="metadata4328">
    <rdf:RDF>
      <cc:Work
         rdf:about="">
        <dc:format>image/svg+xml</dc:format>
        <dc:type
           rdf:resource="http://purl.org/dc/dcmitype/StillImage" />
        <dc:title></dc:title>
      </cc:Work>
    </rdf:RDF>
  </metadata>
  <g
     inkscape:label="Layer 1"
     inkscape:groupmode="layer"
     id="layer1"
     transform="translate(-341.5198,-565.99291)">
    <polygon
       style="clip-rule:evenodd;fill:#dc3125;fill-rule:evenodd;image-rendering:optimizeQuality;shape-rendering:geometricPrecision;text-rendering:geometricPrecision"
       id="polygon12"
       points="17.1816,268.246 3.0338,268.246 3.0338,254.022 17.1816,254.022 "
       class="fil1"
       transform="matrix(3.5433071,0,0,3.5433071,330.77011,-333.72717)" />
    <path
       style="clip-rule:evenodd;fill:#ffffff;fill-rule:evenodd;image-rendering:optimizeQuality;shape-rendering:geometricPrecision;text-rendering:geometricPrecision"
       inkscape:connector-curvature="0"
       id="path14"
       d="m 352.04979,591.28149 -7.29,0 c 0.18,-11.97 9.9,-21.51 21.78,-21.51 12.6,0 21.69,9.09 21.87,21.51 l -0.36,0 c -0.54,-9.54 -8.37,-17.19 -18,-17.19 -9.63,0 -17.55,7.65 -18,17.19 z"
       class="fil0" />
    <path
       style="clip-rule:evenodd;fill:#ffffff;fill-rule:evenodd;image-rendering:optimizeQuality;shape-rendering:geometricPrecision;text-rendering:geometricPrecision"
       inkscape:connector-curvature="0"
       id="path16"
       d="m 387.14979,591.37007 c -0.9,0 -0.54,0 -0.54,0 -0.27,-7.2 -6.3,-12.96 -13.59,-12.96 -7.29,0 -13.14,5.67 -13.59,12.87 -1.35,0.09 -4.32,0.27 -6.57,0 0.45,-9.36 7.92,-16.38 17.1,-16.38 9.27,0 16.74,7.38 17.19,16.47 z"
       class="fil0" />
    <path
       style="clip-rule:evenodd;fill:#ffffff;fill-rule:evenodd;image-rendering:optimizeQuality;shape-rendering:geometricPrecision;text-rendering:geometricPrecision"
       inkscape:connector-curvature="0"
       id="path18"
       d="m 360.32979,591.37007 c 0.27,-6.84 5.85,-12.24 12.69,-12.24 6.93,0 12.51,5.4 12.78,12.24 l -0.54,0 c -0.27,-4.95 -4.32,-8.73 -9.27,-8.73 -4.95,0 -9,3.78 -9.36,8.73 l -6.3,0 z"
       class="fil0" />
    <path
       style="clip-rule:evenodd;fill:#ffffff;fill-rule:evenodd;image-rendering:optimizeQuality;shape-rendering:geometricPrecision;text-rendering:geometricPrecision"
       inkscape:connector-curvature="0"
       id="path20"
       d="m 381.11979,592.00078 7.29,0 c -0.18,11.88 -9.9,21.51 -21.87,21.51 -12.51,0 -21.6,-9.18 -21.78,-21.51 l 0.36,0 c 0.45,9.54 8.37,17.1 18,17.1 9.63,0 17.55,-7.56 18,-17.1 z"
       class="fil0" />
    <path
       style="clip-rule:evenodd;fill:#ffffff;fill-rule:evenodd;image-rendering:optimizeQuality;shape-rendering:geometricPrecision;text-rendering:geometricPrecision"
       inkscape:connector-curvature="0"
       id="path22"
       d="m 346.01979,591.82007 c 0.9,0 0.45,0 0.45,0 0.36,7.29 6.3,13.05 13.68,13.05 7.2,0 13.14,-5.67 13.59,-12.87 1.35,-0.09 4.32,-0.36 6.57,0 -0.54,9.27 -7.92,16.29 -17.19,16.29 -9.18,0 -16.65,-7.38 -17.1,-16.47 z"
       class="fil0" />
    <path
       style="clip-rule:evenodd;fill:#ffffff;fill-rule:evenodd;image-rendering:optimizeQuality;shape-rendering:geometricPrecision;text-rendering:geometricPrecision"
       inkscape:connector-curvature="0"
       id="path24"
       d="m 372.83979,591.9122 c -0.27,6.84 -5.85,12.24 -12.78,12.24 -6.84,0 -12.42,-5.4 -12.69,-12.24 l 0.45,0 c 0.36,4.86 4.41,8.73 9.36,8.73 4.95,0 9,-3.87 9.27,-8.73 l 6.39,0 z"
       class="fil0" />
    <path
       style="clip-rule:evenodd;fill:#dc3125;fill-rule:evenodd;image-rendering:optimizeQuality;shape-rendering:geometricPrecision;text-rendering:geometricPrecision"
       inkscape:connector-curvature="0"
       id="path96"
       d="m 480.62259,565.99291 -1.34646,5.1835 2.15433,0.26929 1.3461,0.26929 1.41378,0.47126 1.00985,0.67323 c 0,0 0.20196,0.94217 0.20196,1.00949 0,0.13465 -0.20196,1.61575 -0.20196,1.61575 l -8.75126,32.78409 -0.60591,1.00949 -1.00984,0.74055 -1.27914,0.60591 -1.34645,0.53858 c 0,0 -1.41343,0.20197 -1.41343,0.26929 0,0.13465 -2.22165,0.13465 -2.22165,0.26929 0,0.0673 -1.27914,5.04886 -1.27914,5.04886 0,0 39.04477,0 39.11209,0 0.13465,0 1.21181,-4.84689 1.27913,-4.84689 0.13465,0.0673 -1.07716,-0.13464 -1.07716,-0.20197 0,-0.0673 -1.07717,-0.26929 -1.07717,-0.26929 l -1.07716,-0.26929 c 0,0 -0.94217,-0.47126 -1.00949,-0.53858 0,0 -0.60591,-0.67323 -0.60591,-0.67323 0,0 -0.33661,-1.00949 -0.33661,-1.07681 0,-0.0673 0.0673,-1.27914 0.20197,-1.27914 0.0673,0.0673 8.68394,-32.91874 8.68394,-32.91874 l 0.74055,-1.27878 1.27913,-0.87519 c 0,0 1.48075,-0.53858 1.48075,-0.53858 0,-0.0673 1.61575,-0.33662 1.75039,-0.33662 0.20197,0 1.61575,-0.33661 1.68307,-0.33661 0.0673,0 1.41378,-5.31815 1.48111,-5.31815 0.0673,0 -39.17941,0 -39.17941,0 z m -14.40638,24.0998 0,0 c 0,0 1.41378,-0.53858 2.28898,-0.8752 0.80787,-0.33661 1.27913,-0.53822 2.01968,-0.94216 0.80752,-0.47126 1.27878,-0.74055 2.01933,-1.27914 0.74055,-0.53858 1.81772,-1.41377 1.81772,-1.4811 0,0 0.94252,-0.87519 1.4811,-1.4811 0.47126,-0.60555 0.7402,-1.00949 1.14413,-1.68272 0.40394,-0.6059 0.60591,-0.87519 0.94252,-1.54842 0.26929,-0.67323 0.40394,-1.07717 0.60591,-1.81772 0.20197,-0.67287 0.26929,-1.07681 0.33661,-1.81736 0.0673,-1.00984 -0.0673,-2.55827 -0.0673,-2.55827 0,0 -0.26929,-1.27878 -0.60591,-2.01933 -0.26929,-0.74055 -0.47126,-1.07716 -1.00984,-1.68307 -0.33661,-0.53858 -0.67287,-0.74055 -1.14413,-1.21181 -0.60591,-0.53858 -1.00984,-0.80787 -1.7504,-1.27878 -0.74055,-0.40394 -1.21181,-0.53858 -2.087,-0.8752 -0.74055,-0.26929 -1.14414,-0.33661 -1.88469,-0.53858 -1.00984,-0.26929 -2.55827,-0.47126 -2.55827,-0.47126 l -2.89452,-0.26929 c 0,0 -53.9224,0 -53.85508,0 0.0673,0 -1.75004,4.84689 -1.75004,4.84689 0,0 1.88468,0.33661 1.95201,0.33661 0.0673,0.0673 1.07716,0.20197 1.88504,0.33662 0.74055,0.20197 1.34645,0.53858 1.68307,0.6059 0.26929,0 0.47126,0.20197 0.87519,0.60591 0.40394,0.40393 0.13465,1.54807 0.13465,1.54807 l -0.47126,1.88504 -8.48232,31.37031 -0.94252,1.48075 -1.27878,0.8752 -1.68307,0.74055 -1.95236,0.67323 c 0,0 -2.2213,0.20197 -2.15398,0.20197 0.0673,0 -1.54843,4.98153 -1.54843,4.98153 l 53.92205,0 c 0,0 2.22165,-0.13464 3.7024,-0.26929 1.41378,-0.13465 2.28898,-0.13465 3.70276,-0.47126 1.41378,-0.33661 2.2213,-0.6059 3.56775,-1.14449 1.00985,-0.40393 1.54843,-0.67287 2.55827,-1.14413 0.94217,-0.53858 1.54807,-0.8752 2.42327,-1.54843 1.00984,-0.67323 1.54842,-1.14448 2.42362,-2.01968 0.8752,-0.80788 1.34646,-1.21146 2.08665,-2.15398 0.60591,-0.74055 0.8752,-1.21181 1.27914,-2.01968 0.53858,-0.8752 0.80787,-1.41378 1.14449,-2.35595 0.26929,-1.00984 0.40393,-1.54842 0.53858,-2.62559 0.0673,-0.94252 0.13464,-1.54842 0,-2.49059 -0.13465,-0.8752 -0.20197,-1.34646 -0.47126,-2.15433 -0.26929,-0.74055 -0.53858,-1.21181 -1.00984,-1.81772 -0.47126,-0.74019 -0.80788,-1.07681 -1.41378,-1.61539 -0.67288,-0.53858 -1.00949,-0.80787 -1.75004,-1.21181 -0.67323,-0.40394 -1.07717,-0.60591 -1.81772,-0.94252 -0.74055,-0.26929 -1.95236,-0.67323 -1.95236,-0.67323 l 0,0 z m -28.40811,-2.55791 4.51027,0 1.81737,-0.33662 1.68307,-0.33661 1.61575,-0.67323 1.54842,-1.14449 c 0.47091,-0.40393 0.7402,-0.67323 1.21146,-1.14449 0.40393,-0.53822 0.6059,-0.80752 1.00984,-1.41342 0.47126,-0.67323 0.74055,-1.07717 1.00984,-1.81772 0.33662,-0.74055 0.47126,-1.21181 0.67323,-2.01933 0.13465,-0.67323 0.20197,-1.07716 0.13465,-1.75039 0,-0.67323 -0.13465,-1.07717 -0.40394,-1.7504 -0.20197,-0.47126 -0.40394,-0.74055 -0.80788,-1.14448 -0.40393,-0.47091 -0.67322,-0.67288 -1.27913,-1.00949 -0.47126,-0.33662 -0.80787,-0.53858 -1.41342,-0.74055 -0.60591,-0.20197 -1.68307,-0.40394 -1.68307,-0.40394 0,0 -5.4528,0.0673 -5.52012,0 -0.0673,0 -4.10634,15.68516 -4.10634,15.68516 l 0,0 z m 4.91421,5.45279 0,0 c 0,0 1.27878,0.13465 2.01933,0.40394 0.60591,0.20197 1.41378,0.67287 1.4811,0.7402 0.13465,0 0.80788,0.47126 1.27914,0.87519 l 1.14449,1.34646 0.53858,1.68307 0.067,2.15398 -0.53823,2.08701 c -0.20197,0.67322 -0.33662,1.07716 -0.60591,1.75039 -0.47126,0.87484 -1.41378,2.15398 -1.41378,2.15398 l -1.41378,1.54842 -1.75004,1.27913 -1.61574,0.94217 -1.81772,0.67323 -2.01933,0.53858 -1.88504,0.13465 -4.71224,0 4.84689,-18.3104 6.39531,0 z m 1.61539,-5.72208 -1.3461,0.20196 1.21146,-0.26929 0.13464,0.0673 z m 77.82024,-21.2726 -1.34646,5.1835 2.15434,0.26929 1.34645,0.26929 1.4811,0.47126 0.94217,0.67323 c 0,0 0.26929,0.94217 0.20197,1.00949 0,0.13465 -0.20197,1.61575 -0.20197,1.61575 l -8.68394,32.78409 -0.67323,1.00949 -0.94252,0.74055 -1.27913,0.60591 -1.3461,0.53858 c 0,0 -1.4811,0.20197 -1.4811,0.26929 0,0.13465 -2.22166,0.13465 -2.22166,0.26929 0,0.0673 -1.27878,5.04886 -1.27878,5.04886 0,0 39.11174,0 39.17906,0 0.0673,0 1.21181,-4.84689 1.27913,-4.84689 0.0673,0.0673 -1.14449,-0.13464 -1.14449,-0.20197 0,-0.0673 -1.00948,-0.26929 -1.00948,-0.26929 l -1.14449,-0.26929 c 0,0 -0.94252,-0.47126 -0.94252,-0.53858 3.5e-4,0 -0.67323,-0.67323 -0.67323,-0.67323 0,0 -0.26929,-1.00949 -0.26929,-1.07681 0,-0.0673 0.0673,-1.27914 0.13464,-1.27914 0.0673,0.0673 8.6843,-32.91874 8.6843,-32.91874 l 0.74019,-1.27878 1.27914,-0.87519 c 0,0 1.54842,-0.53858 1.54842,-0.53858 0,-0.0673 1.54843,-0.33662 1.75039,-0.33662 0.13465,0 1.6154,-0.33661 1.68272,-0.33661 0.0673,0 1.34646,-5.31815 1.41378,-5.31815 0.0673,0 -39.17941,0 -39.17941,0 z"
       class="fil1" />
  </g>
</svg>
